# xmcd
#
# Track frame offsets: 
#        210
#        7837
#        20670
#        48722
#        63097
#        75332
#        87082
#        88830
#        107207
#        134577
#        135732
#        150665
#        172845
#        185607
#
# Disc length: 2769 seconds
#
# Revision: 2
# Processed by: cddbd v1.5.2PL0 Copyright (c) Steve Scherf et al.
# Submitted via: ExactAudioCopyFreeDBPlugin 1.0
#
DISCID=ac0acf0e
DTITLE=Various Artist - Black Top Blues-A-Rama, Volume 3
DYEAR=1990
DGENRE=Blues,R&B
TTITLE0=Theme Song and Introduction
TTITLE1=Next Time You See Me
TTITLE2=Your Turn to Cry
TTITLE3=Don't Want No Woman
TTITLE4=When There's No Way Out
TTITLE5=You Did Me Wrong
TTITLE6=Introduction
TTITLE7=Organ-ism
TTITLE8=Tee-Na-Nee-Na-Nu
TTITLE9=Introduction
TTITLE10=Bonehead
TTITLE11=Sex Machine
TTITLE12=Bad Luck
TTITLE13=Night Train
EXTD=
EXTT0=James Thunderbird Davis\n
EXTT1=James Thunderbird Davis\n
EXTT2=James Thunderbird Davis\n
EXTT3=James Thunderbird Davis\n
EXTT4=James Thunderbird Davis\n
EXTT5=James Thunderbird Davis\n
EXTT6=Ron Levy\n
EXTT7=Ron Levy\n
EXTT8=Ron Levy\n
EXTT9=Bobby Radcliff\n
EXTT10=Bobby Radcliff\n
EXTT11=Bobby Radcliff\n
EXTT12=Bobby Radcliff\n
EXTT13=Bobby Radcliff\n
PLAYORDER=
